<mxfile host="Electron" modified="2025-02-22T07:29:35.267Z" agent="Mozilla/5.0 (Windows NT 10.0; Win64; x64) AppleWebKit/537.36 (KHTML, like Gecko) draw.io/22.0.3 Chrome/114.0.5735.289 Electron/25.8.4 Safari/537.36" etag="zJ678rEuKbmCH7JYckW5" version="22.0.3" type="device">
  <diagram name="Page-1" id="lvJCiQpwWUN9u13E2MQs">
    <mxGraphModel dx="1098" dy="1180" grid="1" gridSize="10" guides="1" tooltips="1" connect="1" arrows="1" fold="1" page="1" pageScale="1" pageWidth="3300" pageHeight="4681" math="0" shadow="0">
      <root>
        <mxCell id="0" />
        <mxCell id="1" parent="0" />
        <mxCell id="MV5rYjYh7swwcqaqKN0a-1" value="" style="endArrow=classic;html=1;rounded=0;" parent="1" edge="1">
          <mxGeometry width="50" height="50" relative="1" as="geometry">
            <mxPoint x="160" y="480" as="sourcePoint" />
            <mxPoint x="1320" y="480" as="targetPoint" />
          </mxGeometry>
        </mxCell>
        <mxCell id="MV5rYjYh7swwcqaqKN0a-2" value="" style="rounded=0;whiteSpace=wrap;html=1;strokeColor=none;fillColor=#B3B3B3;" parent="1" vertex="1">
          <mxGeometry x="200" y="360" width="320" height="120" as="geometry" />
        </mxCell>
        <mxCell id="MV5rYjYh7swwcqaqKN0a-4" value="" style="endArrow=none;html=1;rounded=0;" parent="1" edge="1">
          <mxGeometry width="50" height="50" relative="1" as="geometry">
            <mxPoint x="520" y="520" as="sourcePoint" />
            <mxPoint x="520" y="240" as="targetPoint" />
          </mxGeometry>
        </mxCell>
        <mxCell id="MV5rYjYh7swwcqaqKN0a-5" value="" style="endArrow=none;html=1;rounded=0;" parent="1" edge="1">
          <mxGeometry width="50" height="50" relative="1" as="geometry">
            <mxPoint x="1080" y="520" as="sourcePoint" />
            <mxPoint x="1080" y="240" as="targetPoint" />
          </mxGeometry>
        </mxCell>
        <mxCell id="MV5rYjYh7swwcqaqKN0a-6" value="" style="endArrow=none;html=1;rounded=0;" parent="1" edge="1">
          <mxGeometry width="50" height="50" relative="1" as="geometry">
            <mxPoint x="640" y="520" as="sourcePoint" />
            <mxPoint x="640" y="360" as="targetPoint" />
          </mxGeometry>
        </mxCell>
        <mxCell id="MV5rYjYh7swwcqaqKN0a-7" value="" style="endArrow=none;html=1;rounded=0;" parent="1" edge="1">
          <mxGeometry width="50" height="50" relative="1" as="geometry">
            <mxPoint x="840" y="520" as="sourcePoint" />
            <mxPoint x="840" y="320" as="targetPoint" />
          </mxGeometry>
        </mxCell>
        <mxCell id="MV5rYjYh7swwcqaqKN0a-8" value="" style="endArrow=classic;startArrow=classic;html=1;rounded=0;" parent="1" edge="1">
          <mxGeometry width="50" height="50" relative="1" as="geometry">
            <mxPoint x="520" y="440" as="sourcePoint" />
            <mxPoint x="640" y="440" as="targetPoint" />
          </mxGeometry>
        </mxCell>
        <mxCell id="MV5rYjYh7swwcqaqKN0a-9" value="" style="endArrow=classic;startArrow=classic;html=1;rounded=0;" parent="1" edge="1">
          <mxGeometry width="50" height="50" relative="1" as="geometry">
            <mxPoint x="640" y="400" as="sourcePoint" />
            <mxPoint x="840" y="400" as="targetPoint" />
          </mxGeometry>
        </mxCell>
        <mxCell id="MV5rYjYh7swwcqaqKN0a-10" value="" style="endArrow=classic;startArrow=classic;html=1;rounded=0;" parent="1" edge="1">
          <mxGeometry width="50" height="50" relative="1" as="geometry">
            <mxPoint x="840" y="360" as="sourcePoint" />
            <mxPoint x="1080" y="360" as="targetPoint" />
          </mxGeometry>
        </mxCell>
        <mxCell id="MV5rYjYh7swwcqaqKN0a-11" value="" style="endArrow=classic;startArrow=classic;html=1;rounded=0;" parent="1" edge="1">
          <mxGeometry width="50" height="50" relative="1" as="geometry">
            <mxPoint x="520" y="280" as="sourcePoint" />
            <mxPoint x="1080" y="280" as="targetPoint" />
          </mxGeometry>
        </mxCell>
        <mxCell id="MV5rYjYh7swwcqaqKN0a-12" value="" style="shape=parallelogram;perimeter=parallelogramPerimeter;whiteSpace=wrap;html=1;fixedSize=1;" parent="1" vertex="1">
          <mxGeometry x="1080" y="360" width="50" height="120" as="geometry" />
        </mxCell>
        <mxCell id="MV5rYjYh7swwcqaqKN0a-13" value="" style="shape=parallelogram;perimeter=parallelogramPerimeter;whiteSpace=wrap;html=1;fixedSize=1;" parent="1" vertex="1">
          <mxGeometry x="1110" y="360" width="50" height="120" as="geometry" />
        </mxCell>
        <mxCell id="MV5rYjYh7swwcqaqKN0a-14" value="" style="shape=parallelogram;perimeter=parallelogramPerimeter;whiteSpace=wrap;html=1;fixedSize=1;" parent="1" vertex="1">
          <mxGeometry x="1140" y="360" width="50" height="120" as="geometry" />
        </mxCell>
        <mxCell id="MV5rYjYh7swwcqaqKN0a-15" value="" style="shape=parallelogram;perimeter=parallelogramPerimeter;whiteSpace=wrap;html=1;fixedSize=1;" parent="1" vertex="1">
          <mxGeometry x="1170" y="360" width="50" height="120" as="geometry" />
        </mxCell>
        <mxCell id="MV5rYjYh7swwcqaqKN0a-16" value="" style="shape=parallelogram;perimeter=parallelogramPerimeter;whiteSpace=wrap;html=1;fixedSize=1;" parent="1" vertex="1">
          <mxGeometry x="1200" y="360" width="50" height="120" as="geometry" />
        </mxCell>
        <mxCell id="MV5rYjYh7swwcqaqKN0a-17" value="" style="shape=parallelogram;perimeter=parallelogramPerimeter;whiteSpace=wrap;html=1;fixedSize=1;" parent="1" vertex="1">
          <mxGeometry x="1230" y="360" width="50" height="120" as="geometry" />
        </mxCell>
      </root>
    </mxGraphModel>
  </diagram>
</mxfile>
